<svg width="144" height="21" viewBox="0 0 144 21" fill="none" xmlns="http://www.w3.org/2000/svg">
<path d="M30.128 0C24.356 0 19.676 4.702 19.676 10.5C19.676 16.298 24.356 21 30.128 21C35.9 21 40.579 16.299 40.579 10.5C40.58 4.702 35.901 0 30.128 0ZM30.128 15.154C27.569 15.154 25.495 13.07 25.495 10.5C25.495 7.93 27.57 5.846 30.128 5.846C32.686 5.846 34.76 7.93 34.76 10.5C34.761 13.07 32.687 15.154 30.128 15.154Z" fill="black"/>
<path d="M51.452 0C45.68 0 41 4.702 41 10.5C41 16.298 45.68 21 51.452 21C57.224 21 61.903 16.299 61.903 10.5C61.904 4.702 57.225 0 51.452 0ZM51.452 15.154C48.893 15.154 46.819 13.07 46.819 10.5C46.819 7.93 48.894 5.846 51.452 5.846C54.01 5.846 56.084 7.93 56.084 10.5C56.085 13.07 54.011 15.154 51.452 15.154Z" fill="black"/>
<path d="M51.452 0C45.68 0 41 4.702 41 10.5C41 16.298 45.68 21 51.452 21C57.224 21 61.903 16.299 61.903 10.5C61.904 4.702 57.225 0 51.452 0ZM51.452 15.154C48.893 15.154 46.819 13.07 46.819 10.5C46.819 7.93 48.894 5.846 51.452 5.846C54.01 5.846 56.084 7.93 56.084 10.5C56.085 13.07 54.011 15.154 51.452 15.154Z" fill="black"/>
<path d="M98.451 0C92.679 0 88 4.702 88 10.5C88 16.298 92.679 21 98.451 21C104.222 21 108.902 16.299 108.902 10.5C108.903 4.702 104.223 0 98.451 0ZM98.451 15.154C95.892 15.154 93.818 13.07 93.818 10.5C93.818 7.93 95.892 5.846 98.451 5.846C101.011 5.846 103.084 7.93 103.084 10.5C103.084 13.07 101.011 15.154 98.451 15.154Z" fill="black"/>
<path d="M18.332 12.314C17.002 11.414 15.198 11.763 14.297 13.095C14.294 13.099 14.291 13.105 14.287 13.109C14.276 13.125 14.266 13.14 14.257 13.156H14.255C13.419 14.363 12.028 15.154 10.451 15.154C7.893 15.154 5.819 13.07 5.819 10.5C5.819 7.93 7.893 5.846 10.451 5.846C12.047 5.846 13.454 6.656 14.286 7.89C14.29 7.895 14.294 7.901 14.298 7.907C15.198 9.238 17.002 9.587 18.332 8.686C19.664 7.783 20.015 5.967 19.115 4.628C19.109 4.618 19.102 4.61 19.096 4.6C17.215 1.823 14.045 0 10.451 0C4.679 0 0 4.701 0 10.5C0 16.299 4.679 21 10.451 21C14.035 21 17.198 19.188 19.081 16.426L19.079 16.424C19.09 16.408 19.103 16.391 19.115 16.371C20.014 15.033 19.663 13.217 18.332 12.314Z" fill="black"/>
<path d="M14.2549 13.154L14.2579 13.156C14.2679 13.14 14.2779 13.125 14.2879 13.109C14.2769 13.125 14.2669 13.141 14.2549 13.154Z" fill="black"/>
<path d="M14.2921 13.104L14.2881 13.109L14.2981 13.096L14.2921 13.104Z" fill="black"/>
<path d="M14.2981 7.90601C14.2941 7.90101 14.2911 7.89501 14.2871 7.88901C14.2891 7.89201 14.2901 7.89501 14.2921 7.89801C14.2941 7.90001 14.2961 7.90301 14.2981 7.90601Z" fill="black"/>
<path d="M85.453 15.154C85.447 15.154 85.441 15.154 85.437 15.154H85.441C82.888 15.148 80.819 13.066 80.819 10.5V2.923C80.819 2.336 80.648 1.792 80.352 1.334C79.834 0.531 78.935 0 77.911 0C76.304 0 75 1.308 75 2.923V10.5C75 16.294 79.674 20.994 85.441 21H85.437C85.443 21 85.447 21 85.453 21C87.059 21 88.363 19.691 88.363 18.078C88.363 16.463 87.059 15.154 85.453 15.154Z" fill="black"/>
<path d="M74.453 15.154C74.447 15.154 74.441 15.154 74.437 15.154H74.441C71.888 15.148 69.819 13.066 69.819 10.5V2.923C69.819 2.336 69.648 1.792 69.352 1.334C68.834 0.531 67.935 0 66.911 0C65.304 0 64 1.308 64 2.923V10.5C64 16.294 68.674 20.994 74.441 21H74.437C74.443 21 74.447 21 74.453 21C76.059 21 77.363 19.691 77.363 18.078C77.363 16.463 76.059 15.154 74.453 15.154Z" fill="black"/>
<path d="M122.452 5.846C122.447 5.846 122.441 5.846 122.436 5.846H122.441C119.888 5.852 117.818 7.933 117.818 10.5V18.078C117.818 18.664 117.648 19.209 117.351 19.666C116.833 20.469 115.934 21 114.91 21C113.304 21 112 19.691 112 18.078V10.5C112 4.705 116.674 0.007 122.441 0H122.452C122.448 0 122.445 0 122.441 0H122.436C122.441 0 122.447 0 122.452 0C124.058 0 125.361 1.308 125.361 2.923C125.362 4.538 124.059 5.846 122.452 5.846Z" fill="black"/>
<path d="M115.004 13.115L114.999 13.105L115.004 13.115Z" fill="black"/>
<path d="M122.677 13.104L122.675 13.107L122.682 13.098L122.677 13.104Z" fill="black"/>
<path d="M114.994 13.1L114.998 13.105L114.996 13.104L114.994 13.1Z" fill="black"/>
<path d="M142.043 12.314C141.956 12.253 141.863 12.201 141.772 12.152L132.073 6.349C132.702 6.028 133.413 5.846 134.165 5.846C135.751 5.846 137.15 6.647 137.986 7.87L137.988 7.869C138.495 8.643 139.36 9.162 140.352 9.184C141.958 9.22 143.29 7.942 143.327 6.328C143.341 5.675 143.139 5.069 142.788 4.575C142.794 4.583 142.8 4.59 142.807 4.598L142.809 4.596C140.926 1.822 137.757 0 134.164 0C130.577 0 127.414 1.816 125.531 4.582L125.533 4.583C125.521 4.599 125.51 4.613 125.499 4.629C124.601 5.967 124.952 7.784 126.285 8.687C126.374 8.747 126.466 8.802 126.558 8.851L136.255 14.653C135.626 14.973 134.917 15.155 134.163 15.155C132.569 15.155 131.164 14.346 130.331 13.116H130.329C130.331 13.118 130.331 13.12 130.333 13.12C130.329 13.116 130.327 13.112 130.325 13.106C130.323 13.104 130.321 13.102 130.32 13.1C129.422 11.766 127.614 11.412 126.284 12.315C124.951 13.217 124.599 15.036 125.498 16.372C125.5 16.376 125.503 16.38 125.505 16.382V16.384C127.384 19.169 130.56 21.001 134.163 21.001C137.76 21.001 140.929 19.175 142.809 16.397C142.815 16.389 142.823 16.381 142.829 16.372C142.829 16.37 142.831 16.368 142.833 16.366C142.837 16.36 142.841 16.356 142.845 16.35L142.843 16.348C143.723 15.012 143.369 13.213 142.043 12.314Z" fill="black"/>
</svg>
